# xmcd
#
# Track frame offsets:
#	150
#	13422
#	30712
#	48055
#	63022
#	77452
#	87157
#	105065
#	129142
#	151202
#	168522
#	182872
#	198487
#
# Disc length: 2843 seconds
#
# Revision: 1
# Processed by: cddbd v1.5.1PL0 Copyright (c) Steve Scherf et al.
# Submitted via: audiograbber 1.82.02
#
DISCID=8f0b190d
DTITLE=Svein Johnsen - La meg få være original
DYEAR=1995
DGENRE=Country gospel
TTITLE0=La meg få være en orginal
TTITLE1=Jeg fikk liv
TTITLE2=Vi har seier
TTITLE3=Det kommer en dag
TTITLE4=En ny dag
TTITLE5=Det finns håp
TTITLE6=Kjærlighetens dråper
TTITLE7=Du var der
TTITLE8=Jeg kan stole på Jesus
TTITLE9=La oss holde sammen
TTITLE10=Du som er ren
TTITLE11=Så gå da til verket
TTITLE12=Vær ikke lei deg
EXTD=
EXTT0=
EXTT1=
EXTT2=
EXTT3=
EXTT4=
EXTT5=
EXTT6=
EXTT7=
EXTT8=
EXTT9=
EXTT10=
EXTT11=
EXTT12=
PLAYORDER=
